<svg width="74" height="74" viewBox="0 0 74 74" fill="none" xmlns="http://www.w3.org/2000/svg">
<g clip-path="url(#clip0_186_170)">
<path d="M36.9998 59.2C49.2605 59.2 59.1998 49.2607 59.1998 37C59.1998 24.7393 49.2605 14.8 36.9998 14.8C24.7391 14.8 14.7998 24.7393 14.7998 37C14.7998 49.2607 24.7391 59.2 36.9998 59.2Z" stroke="#3F3024" stroke-opacity="0.5" stroke-width="0.74"/>
<path d="M36.9998 56.24C47.6257 56.24 56.2398 47.626 56.2398 37C56.2398 26.3741 47.6257 17.76 36.9998 17.76C26.3738 17.76 17.7598 26.3741 17.7598 37C17.7598 47.626 26.3738 56.24 36.9998 56.24Z" stroke="#3F3024" stroke-opacity="0.3" stroke-width="0.444"/>
<path d="M37.0001 2.96002L41.4401 37L37.0001 42.92L32.5601 37L37.0001 2.96002Z" fill="#3F3024"/>
<path d="M37.0001 71.04L41.4401 37L37.0001 31.08L32.5601 37L37.0001 71.04Z" fill="#F6EAD0" stroke="#3F3024" stroke-width="0.74"/>
<path d="M71.0401 37L37.0001 41.44L31.0801 37L37.0001 32.56L71.0401 37Z" fill="#F6EAD0" stroke="#3F3024" stroke-width="0.74"/>
<path d="M2.95996 37L37 41.44L42.92 37L37 32.56L2.95996 37Z" fill="#3F3024"/>
<path opacity="0.6" d="M53.28 20.72L38.48 38.48L35.52 35.52L53.28 20.72Z" fill="#3F3024"/>
<path opacity="0.6" d="M20.7202 53.28L38.4802 38.48L35.5202 35.52L20.7202 53.28Z" fill="#3F3024"/>
<path opacity="0.35" d="M53.28 53.28L38.48 35.52L35.52 38.48L53.28 53.28Z" fill="#3F3024"/>
<path opacity="0.35" d="M20.7202 20.72L38.4802 35.52L35.5202 38.48L20.7202 20.72Z" fill="#3F3024"/>
<path d="M38.3303 -3.28364V1.56H37.7627L35.1233 -2.24301H35.076V1.56H34.4894V-3.28364H35.057L37.7059 0.528833H37.7532V-3.28364H38.3303Z" fill="#3F3024"/>
</g>
<defs>
<clipPath id="clip0_186_170">
<rect width="74" height="74" fill="white"/>
</clipPath>
</defs>
</svg>
