<?xml version="1.0" encoding="UTF-8" standalone="no"?>
<!-- Created with Inkscape (http://www.inkscape.org/) -->

<svg
   width="30.472515mm"
   height="35.486217mm"
   viewBox="0 0 30.472515 35.486217"
   version="1.1"
   id="svg1"
   xml:space="preserve"
   inkscape:version="1.3 (0e150ed6c4, 2023-07-21)"
   sodipodi:docname="cor.svg"
   xmlns:inkscape="http://www.inkscape.org/namespaces/inkscape"
   xmlns:sodipodi="http://sodipodi.sourceforge.net/DTD/sodipodi-0.dtd"
   xmlns="http://www.w3.org/2000/svg"
   xmlns:svg="http://www.w3.org/2000/svg"><sodipodi:namedview
     id="namedview1"
     pagecolor="#ffffff"
     bordercolor="#000000"
     borderopacity="0.25"
     inkscape:showpageshadow="2"
     inkscape:pageopacity="0.0"
     inkscape:pagecheckerboard="0"
     inkscape:deskcolor="#d1d1d1"
     inkscape:document-units="mm"
     inkscape:zoom="0.43089286"
     inkscape:cx="99.792789"
     inkscape:cy="87.028595"
     inkscape:window-width="1419"
     inkscape:window-height="1237"
     inkscape:window-x="950"
     inkscape:window-y="76"
     inkscape:window-maximized="0"
     inkscape:current-layer="layer1" /><defs
     id="defs1" /><g
     inkscape:label="Calque 1"
     inkscape:groupmode="layer"
     id="layer1"
     transform="translate(-87.892882,-138.97298)"><path
       style="fill:#000000"
       d="m 101.90345,174.38654 c -1.27615,-0.25115 -1.83204,-2.42967 -1.02046,-3.9991 0.65857,-1.27353 3.88288,-2.65541 4.20955,-1.80413 0.10999,0.28663 -0.11588,0.43487 -0.85216,0.55926 -1.37303,0.23198 -2.93457,1.55058 -2.93457,2.47802 0,1.08418 0.68967,1.89169 1.61564,1.89169 1.83957,0 3.14686,-1.41154 3.14686,-3.39783 0,-0.86546 -0.20527,-1.27116 -1.2067,-2.385 -0.66369,-0.73817 -1.89744,-1.76174 -2.74168,-2.27458 -1.632,-0.99139 -3.429219,-2.7672 -4.065453,-4.01702 -0.969975,-1.90542 -0.656088,-1.88688 0.909113,0.0537 1.08171,1.34113 2.35934,2.55178 3.5389,3.35337 2.17513,1.47814 3.43979,2.81371 4.14598,4.37844 0.42805,0.94845 0.46349,1.28278 0.21557,2.03399 -0.71836,2.17664 -2.8781,3.53904 -4.96059,3.12921 z m 4.69402,-6.30389 c 0,-0.45899 1.22338,-1.10848 1.52248,-0.80828 0.20316,0.20391 -0.86727,1.21083 -1.2872,1.21083 -0.1294,0 -0.23528,-0.18115 -0.23528,-0.40255 z m 1.43053,-1.17673 c -1.46298,-0.31212 -2.8888,-0.92847 -4.41822,-1.90989 l -1.2744,-0.81778 2.1972,-1.08818 c 1.20845,-0.59849 2.46999,-1.28119 2.80342,-1.5171 0.58784,-0.41592 0.64863,-0.3878 2.00299,0.92654 0.76821,0.74551 2.31111,1.82133 3.42866,2.3907 1.11755,0.56938 2.03191,1.17957 2.03191,1.35599 0,0.17642 -0.35882,0.39253 -0.79739,0.48024 -1.53645,0.3073 -4.90126,0.40838 -5.97417,0.17948 z m 7.03614,-0.64763 c 0,-0.37593 0.11906,-0.68351 0.26458,-0.68351 0.14553,0 0.26459,0.17859 0.26459,0.39688 0,0.21828 0.009,0.48319 0.0198,0.58869 0.0109,0.10551 -0.10815,0.23449 -0.26458,0.28664 -0.15644,0.0521 -0.28443,-0.21277 -0.28443,-0.5887 z m 0.91069,0.0854 c -0.2282,-0.36923 0.12361,-0.76891 0.67681,-0.76891 0.27387,0 0.57152,-0.11906 0.66146,-0.26458 0.27643,-0.44727 0.85675,-0.29355 1.00299,0.26568 0.13943,0.53316 0.0999,0.55409 -1.73033,0.91604 -0.25452,0.0503 -0.52943,-0.0164 -0.61093,-0.14823 z m -14.81219,-3.16776 c -0.28477,-0.46076 0.0396,-0.55834 0.40244,-0.12109 0.20869,0.25146 0.22877,0.40327 0.0533,0.40327 -0.15475,0 -0.35984,-0.12698 -0.45576,-0.28218 z m 1.18946,0.0102 c -0.64529,-0.39881 0.11657,-0.93859 0.85787,-0.60781 0.59239,0.26433 0.59301,0.27001 0.0605,0.55499 -0.32681,0.1749 -0.68731,0.19564 -0.9184,0.0528 z m -2.1143,-0.93913 c -0.342272,-0.42026 -0.339864,-0.45774 0.0208,-0.32303 0.22438,0.0838 0.63409,-0.0129 0.91047,-0.21504 0.70635,-0.5165 1.19512,-0.45675 1.19512,0.14611 0,0.68019 -0.4001,0.89706 -1.03152,0.55913 -0.36229,-0.19389 -0.54188,-0.18895 -0.61046,0.0168 -0.0575,0.17261 -0.25506,0.0976 -0.48436,-0.18395 z m 3.10331,-0.0293 c -0.92841,-0.48811 -0.84124,-1.09094 0.24991,-1.7282 0.73269,-0.42792 0.84645,-0.43636 0.98582,-0.0732 0.0909,0.23682 -0.0641,0.6003 -0.36612,0.85894 -0.28801,0.2466 -0.52366,0.55943 -0.52366,0.69516 0,0.13574 0.23793,0.0315 0.52874,-0.23171 0.41135,-0.37227 0.66063,-0.41966 1.1228,-0.21343 0.58556,0.26129 0.58198,0.27132 -0.25102,0.70208 -0.46479,0.24035 -0.88076,0.42437 -0.92436,0.40894 -0.0436,-0.0154 -0.41356,-0.20381 -0.82211,-0.41861 z m -4.624362,-1.86843 c -0.802996,-1.01955 -2.438023,-3.58988 -2.438023,-3.83268 0,-0.34497 6.847925,-4.70013 7.390345,-4.70013 0.12003,0 0.41829,0.80367 0.66279,1.78593 0.2445,0.98227 0.73002,2.41404 1.07894,3.18172 l 0.63438,1.39578 -1.11291,0.81915 c -1.41451,1.04114 -4.11418,2.34194 -4.861,2.34221 -0.34707,1.2e-4 -0.881263,-0.39109 -1.354522,-0.99198 z m 6.822392,0.74562 c 0,-0.13561 0.35768,-0.50126 0.79484,-0.81254 0.72986,-0.51971 0.80909,-0.52887 0.96903,-0.11205 0.1106,0.28821 -0.005,0.58485 -0.31624,0.81254 -0.561,0.41021 -1.44763,0.47884 -1.44763,0.11205 z m -0.66968,-0.57308 c -0.15091,-0.47549 -0.0324,-0.73198 0.55419,-1.19974 1.31174,-1.04594 1.65884,-0.13179 0.40579,1.0687 l -0.76803,0.73582 z m -9.208096,-4.64841 c -0.09701,-0.097 -0.176389,-0.45113 -0.176389,-0.78692 0,-0.4726 0.523679,-0.96266 2.317806,-2.16903 1.274794,-0.85717 3.082719,-1.94462 4.017619,-2.41655 1.60862,-0.81203 1.71849,-0.83253 2.04782,-0.38214 0.1914,0.26175 0.348,0.56146 0.348,0.66602 0,0.10455 -0.92273,0.69337 -2.05052,1.30847 -1.12778,0.61511 -2.982744,1.75697 -4.122133,2.53746 -2.285109,1.56533 -2.136889,1.48801 -2.382203,1.24269 z m -4.051895,-5.35033 c -3.203902,-2.11987 -4.185479,-2.93995 -3.518915,-2.93995 0.430012,0 7.129838,4.52374 7.129838,4.81408 0,0.43855 -0.536292,0.1602 -3.610923,-1.87413 z m 3.537573,-0.26371 c -1.077018,-1.19213 -1.784847,-2.3456 -1.228313,-2.00164 0.397071,0.2454 1.863796,1.87136 2.185811,2.42311 0.471139,0.80726 -0.05773,0.57447 -0.957498,-0.42147 z m 1.319027,-1.02259 c -2.670753,-3.66409 -5.679331,-8.68527 -5.382111,-8.98249 0.268556,-0.26856 0.715155,0.25645 1.800401,2.11647 0.611344,1.0478 1.922828,3.13683 2.914409,4.64231 1.563178,2.3733 2.101776,3.48048 1.693116,3.48048 -0.06037,0 -0.521983,-0.56555 -1.025815,-1.25677 z m 2.618793,-0.0944 c -0.259122,-0.8182 -0.360635,-2.62604 -0.154605,-2.75337 0.252231,-0.15589 0.669441,2.72387 0.429402,2.9639 -0.08693,0.0869 -0.210592,-0.008 -0.274797,-0.21053 z m 1.551008,-0.0307 c -0.25043,-0.6526 0.55405,-9.72053 0.89239,-10.05887 0.40105,-0.40106 0.38932,0.57801 -0.0715,5.96587 -0.35009,4.09313 -0.51168,4.89879 -0.82089,4.093 z"
       id="path1" /></g></svg>
