<?xml version="1.0" encoding="UTF-8" standalone="no"?>
<!-- Created with Inkscape (http://www.inkscape.org/) -->

<svg
   width="24.515575mm"
   height="43.367947mm"
   viewBox="0 0 24.515575 43.367947"
   version="1.1"
   id="svg1"
   xml:space="preserve"
   inkscape:version="1.3 (0e150ed6c4, 2023-07-21)"
   sodipodi:docname="drapeau.svg"
   xmlns:inkscape="http://www.inkscape.org/namespaces/inkscape"
   xmlns:sodipodi="http://sodipodi.sourceforge.net/DTD/sodipodi-0.dtd"
   xmlns="http://www.w3.org/2000/svg"
   xmlns:svg="http://www.w3.org/2000/svg"><sodipodi:namedview
     id="namedview1"
     pagecolor="#ffffff"
     bordercolor="#000000"
     borderopacity="0.25"
     inkscape:showpageshadow="2"
     inkscape:pageopacity="0.0"
     inkscape:pagecheckerboard="0"
     inkscape:deskcolor="#d1d1d1"
     inkscape:document-units="mm"
     inkscape:zoom="0.36945288"
     inkscape:cx="104.20815"
     inkscape:cy="-82.554507"
     inkscape:window-width="1920"
     inkscape:window-height="1009"
     inkscape:window-x="2552"
     inkscape:window-y="155"
     inkscape:window-maximized="1"
     inkscape:current-layer="layer1" /><defs
     id="defs1" /><g
     inkscape:label="Calque 1"
     inkscape:groupmode="layer"
     id="layer1"
     transform="translate(-88.038405,-133.07312)"><path
       style="fill:#000000"
       d="m 98.381364,175.88392 c -0.52039,-0.41188 -0.58306,-0.60407 -0.23879,-0.73233 0.34504,-0.12856 0.26035,-0.39364 -0.32477,-1.01647 -0.951275,-1.01258 -0.62172,-1.58198 0.38717,-0.66894 0.92723,0.83913 1.12568,0.58296 0.69952,-0.90298 -0.56764,-1.97926 -0.36711,-2.36775 0.44438,-0.86091 0.985956,1.8308 1.100136,1.30983 0.906036,-4.13412 -0.0815,-2.28589 -0.0205,-4.15616 0.13566,-4.15616 0.15611,0 0.28384,1.53458 0.28384,3.41018 0,1.87561 0.11907,3.29112 0.26459,3.14559 0.14552,-0.14553 0.24124,-1.79918 0.21272,-3.67477 -0.0408,-2.68361 0.004,-3.03436 0.20916,-1.64628 l 0.26102,1.76389 0.0554,-1.67569 c 0.047,-1.42204 0.16223,-1.6757 0.76098,-1.6757 0.62351,0 0.7058,0.23589 0.70767,2.02847 0.001,1.11566 0.10497,3.34982 0.23068,4.9648 l 0.22856,2.93632 0.74144,-0.92986 c 0.51012,-0.63975 0.93344,-0.85619 1.35683,-0.69372 0.68563,0.2631 0.79854,0.71137 0.2626,1.0426 -0.19403,0.11992 -0.35278,0.39916 -0.35278,0.62054 0,0.28994 0.11841,0.28411 0.42334,-0.0208 0.23283,-0.23283 0.58208,-0.42333 0.77611,-0.42333 0.19598,0 0.16463,0.18815 -0.0706,0.42333 -0.55592,0.55592 -0.54414,1.09159 0.0176,0.80251 0.24253,-0.1248 -0.11465,0.26036 -0.79375,0.85592 -0.6791,0.59555 -1.79035,1.24303 -2.46944,1.43884 -1.82819,0.52714 -4.305306,0.42016 -5.115276,-0.22091 z m -7.714009,-18.38094 c -0.236339,-7.21461 -0.907982,-19.40199 -1.176209,-21.34306 -0.145985,-1.05643 -0.06844,-1.32291 0.384954,-1.32291 0.343186,0 0.581672,0.31396 0.602928,0.79375 0.03302,0.74527 0.04917,0.75033 0.264583,0.0827 0.12618,-0.39107 0.467543,-0.70325 0.758585,-0.69376 0.291042,0.01 0.608542,-0.0885 0.705555,-0.21786 0.09701,-0.12932 2.240139,-0.33843 4.7625,-0.4647 2.522363,-0.12626 6.002609,-0.38761 7.733889,-0.58077 2.4771,-0.27638 3.2088,-0.25505 3.43418,0.10012 0.22377,0.35262 0.28758,0.35489 0.2918,0.0104 0.003,-0.24254 0.2344,-0.44097 0.51429,-0.44097 0.34231,0 0.55308,0.49074 0.64392,1.4993 l 0.13504,1.49931 0.0616,-1.6757 c 0.0428,-1.16372 0.21108,-1.67569 0.55076,-1.67569 0.7179,0 0.90281,1.89569 0.49896,5.11528 -0.39791,3.17225 -0.17544,9.55423 0.63148,18.11538 0.29901,3.17249 0.46066,5.85116 0.35921,5.95261 -0.53322,0.53322 -1.2774,-0.34955 -1.32126,-1.56734 -0.0334,-0.9274 -0.0969,-1.07462 -0.20843,-0.483 -0.30822,1.63542 -0.85019,1.82713 -5.00475,1.77032 -3.65488,-0.05 -3.88037,-0.0953 -4.01989,-0.80796 -0.14398,-0.73548 -0.14905,-0.73448 -0.19585,0.0387 -0.0264,0.43656 -0.0877,0.80047 -0.13623,0.80869 -0.0485,0.008 -1.993196,0.37696 -4.321527,0.81943 l -4.233333,0.80449 -0.222844,-0.90762 -0.222845,-0.90763 -0.04174,0.97014 c -0.02469,0.57389 -0.242384,0.97014 -0.532986,0.97014 -0.393654,0 -0.531996,-1.24398 -0.696372,-6.26181 z m 11.065395,-2.87648 c -0.16357,-4.28565 -0.0471,-5.1997 0.54121,-4.24778 0.35895,0.58079 6.50341,5.62496 6.85194,5.62496 0.33295,0 1.13116,-3.23496 0.8641,-3.50201 -0.0878,-0.0878 -0.40307,0.18802 -0.70065,0.61287 -0.64847,0.92582 -1.38826,1.03678 -1.03411,0.15511 0.66606,-1.65824 0.66343,-1.68511 -0.0995,-1.01555 -0.41372,0.36308 -0.95658,0.57638 -1.20634,0.47401 -0.24976,-0.10238 -1.60833,-1.17295 -3.01904,-2.37905 l -2.56492,-2.19291 0.62754,-0.92693 c 0.34515,-0.50981 1.49936,-2.24941 2.56492,-3.86578 l 1.93739,-2.93885 0.10663,1.79232 c 0.0586,0.98578 0.23906,1.79232 0.40091,1.79232 0.70841,0 0.79986,-4.18875 0.11783,-5.39699 -0.21673,-0.38395 -1.08144,0.37198 -2.22341,1.94369 l -0.95124,1.30921 -1.97798,-1.93118 -1.977976,-1.93117 -0.0988,4.39173 -0.0988,4.39173 -2.822223,-2.46698 c -1.552222,-1.35683 -3.258784,-2.78622 -3.792361,-3.17642 -0.965577,-0.70611 -0.970139,-0.70614 -0.970139,-0.008 0,0.46213 1.263843,1.74095 3.704167,3.74806 2.037296,1.67563 3.704166,3.11329 3.704166,3.1948 0,0.33184 -5.00053,7.40565 -5.312618,7.51529 -0.185536,0.0652 -0.435316,-0.37138 -0.555068,-0.97014 -0.218631,-1.09315 -0.835091,-1.52603 -0.835091,-0.5864 0,1.00821 0.834561,4.08386 1.108132,4.08386 0.15477,0 1.486385,-1.74275 2.959146,-3.87279 1.472759,-2.13003 2.805349,-3.95165 2.961319,-4.04805 0.360626,-0.22288 0.725476,2.7772 0.729446,5.9982 0.003,2.23193 0.42869,3.54652 1.02968,3.17796 0.11446,-0.0702 0.12873,-2.20731 0.0317,-4.74916 z m -0.40866,-11.30397 c -0.13217,-2.34348 0.16936,-2.63621 1.3821,-1.34177 l 0.74365,0.79375 -1.00262,1.34242 -1.00262,1.34241 z m -10.293812,-6.45705 c -0.09786,-0.24253 -0.177936,-0.0441 -0.177936,0.44097 0,0.48507 0.08007,0.68351 0.177936,0.44097 0.09786,-0.24253 0.09786,-0.6394 0,-0.88194 z m -2.928805,-0.7951 c -0.121407,-0.31638 -0.06217,-0.73381 0.131639,-0.92762 0.234653,-0.23465 0.416026,-0.10899 0.54289,0.37614 0.230253,0.88049 -0.362355,1.36499 -0.674529,0.55148 z m 23.509057,-2.11532 c 0,-0.48507 0.14177,-0.88194 0.31504,-0.88194 0.41143,0 0.80221,1.03039 0.54723,1.44295 -0.38427,0.62176 -0.86227,0.31077 -0.86227,-0.56101 z"
       id="path1" /></g></svg>
